<svg width="177" height="32" viewBox="0 0 177 32" fill="none" xmlns="http://www.w3.org/2000/svg">
<path fill-rule="evenodd" clip-rule="evenodd" d="M108.353 24.5736C109.332 25.2575 110.545 25.6 111.992 25.6C113.356 25.6 114.546 25.2575 115.562 24.5736C116.578 23.8891 117.365 22.9584 117.924 21.7814C118.482 20.605 118.762 19.2775 118.762 17.7995C118.762 16.3031 118.478 14.971 117.91 13.8033C117.343 12.6263 116.542 11.7002 115.507 11.0249C114.482 10.341 113.269 9.999 111.868 9.999C110.458 9.999 109.273 10.341 108.311 11.0249C108.255 11.0654 108.198 11.1069 108.143 11.1488V6.40002H104.856V25.1894H107.762V24.1046C107.948 24.272 108.145 24.4282 108.353 24.5736ZM107.762 17.7995C107.762 16.8324 107.886 15.9882 108.133 15.2674C108.389 14.5379 108.783 13.9722 109.314 13.5708C109.845 13.1603 110.531 12.955 111.374 12.955C112.262 12.955 112.994 13.1736 113.571 13.6118C114.148 14.0403 114.573 14.6244 114.848 15.3632C115.123 16.0932 115.26 16.9051 115.26 17.7995C115.26 18.7026 115.123 19.5237 114.848 20.2625C114.582 20.9925 114.171 21.572 113.612 22.0005C113.054 22.4295 112.344 22.6441 111.484 22.6441C110.596 22.6441 109.877 22.4429 109.328 22.0415C108.788 21.6309 108.389 21.0611 108.133 20.3311C107.886 19.601 107.762 18.7574 107.762 17.7995Z" fill="#1E293B"/>
<path d="M59.4381 16.2125V25.19H62.7475V15.3775C62.7475 13.7813 62.3081 12.4947 61.4292 11.5185C60.5595 10.5335 59.3054 10.0405 57.6667 10.0405C56.6779 10.0405 55.7808 10.2596 54.9751 10.6973C54.2168 11.1099 53.6045 11.6756 53.1383 12.3949C52.7751 11.7115 52.2614 11.1637 51.597 10.7521C50.8555 10.278 49.931 10.0405 48.8232 10.0405C47.8162 10.0405 46.9052 10.2642 46.0905 10.7111C45.6088 10.9727 45.186 11.2937 44.822 11.6731V9.67648H41.6001L41.6001 25.19H44.822V16.0896C44.822 15.1681 45.1888 14.4197 45.6923 13.8452C46.2049 13.2703 46.8824 12.9826 47.7246 12.9826C48.5943 12.9826 49.281 13.2703 49.7844 13.8452C50.288 14.4197 50.5397 15.2229 50.5397 16.2534V25.19H53.8354V16.0896C53.8354 15.4415 53.959 14.885 54.2061 14.4197C54.3568 14.1309 54.5397 13.8862 54.7548 13.685C54.8928 13.556 55.0441 13.4449 55.2086 13.3522C55.4835 13.1915 55.7817 13.0835 56.1032 13.0272C56.2744 12.9975 56.4523 12.9826 56.6367 12.9826C57.4973 12.9826 58.1794 13.2703 58.6828 13.8452C59.1864 14.4104 59.4381 15.1999 59.4381 16.2125Z" fill="#1E293B"/>
<path fill-rule="evenodd" clip-rule="evenodd" d="M67.8311 24.6278C68.9663 25.2755 70.2845 25.5995 71.7858 25.5995C73.2141 25.5995 74.5186 25.2299 75.6995 24.4912C76.8896 23.7519 77.7684 22.7162 78.3361 21.3847L75.0679 20.3992C74.7475 21.0836 74.2896 21.6079 73.6946 21.9729C73.1088 22.3287 72.4085 22.5069 71.5936 22.5069C70.3303 22.5069 69.369 22.0963 68.7099 21.2751C68.1922 20.6301 67.8778 19.7772 67.7668 18.7159H78.5009C78.629 16.9461 78.4321 15.4087 77.9103 14.1038C77.3886 12.7993 76.5876 11.7913 75.5072 11.0797C74.4362 10.3589 73.1316 9.99849 71.5936 9.99849C70.138 9.99849 68.8563 10.3272 67.7486 10.984C66.641 11.6408 65.7758 12.5669 65.1533 13.7618C64.5308 14.948 64.2195 16.3481 64.2195 17.9633C64.2195 19.4592 64.5353 20.7821 65.167 21.9319C65.8079 23.0813 66.6958 23.9802 67.8311 24.6278ZM75.1917 16.7495C75.1081 15.5295 74.8335 14.6111 74.3675 13.9947C73.8091 13.2555 72.9302 12.8859 71.731 12.8859C70.3761 12.8859 69.369 13.3057 68.7099 14.1452C68.2028 14.7836 67.8908 15.6519 67.7738 16.7495H75.1917Z" fill="#1E293B"/>
<path d="M98.496 25.19V16.2125C98.496 15.1999 98.2443 14.4104 97.7407 13.8447C97.2372 13.2703 96.5552 12.9826 95.6946 12.9826C95.1637 12.9826 94.6877 13.106 94.2665 13.3522C93.8454 13.5893 93.5113 13.9451 93.2641 14.4197C93.1638 14.6086 93.0839 14.8123 93.0243 15.0309C92.9723 15.2219 92.9357 15.4246 92.9146 15.6386C92.9004 15.7835 92.8933 15.9335 92.8933 16.0891V25.19H89.5976V16.2534C89.5976 15.2224 89.3459 14.4197 88.8424 13.8447C88.3388 13.2703 87.6522 12.9826 86.7825 12.9826C85.9403 12.9826 85.2629 13.2703 84.7502 13.8447C84.2466 14.4197 83.9949 15.1676 83.9949 16.0891V25.19H80.658V10.2007H83.9457L83.9597 11.5917C84.3053 11.2476 84.7015 10.9538 85.1484 10.7111C85.9632 10.2642 86.8741 10.0405 87.8811 10.0405C88.9888 10.0405 89.9134 10.2775 90.655 10.7521C91.3193 11.1637 91.8331 11.7109 92.1963 12.3944C92.6626 11.6756 93.2748 11.1099 94.0331 10.6973C94.8387 10.2596 95.7359 10.0405 96.7245 10.0405C98.3632 10.0405 99.6174 10.533 100.487 11.5185C101.366 12.4947 101.805 13.7813 101.805 15.3775V25.19H98.496Z" fill="#1E293B"/>
<path fill-rule="evenodd" clip-rule="evenodd" d="M127.282 25.5995C125.781 25.5995 124.463 25.2755 123.328 24.6278C122.192 23.9802 121.304 23.0813 120.663 21.9319C120.032 20.7821 119.716 19.4592 119.716 17.9633C119.716 16.3481 120.027 14.948 120.65 13.7618C121.272 12.5669 122.137 11.6408 123.245 10.984C124.353 10.3272 125.634 9.99849 127.09 9.99849C128.628 9.99849 129.933 10.3589 131.004 11.0797C132.084 11.7913 132.885 12.7993 133.407 14.1038C133.929 15.4087 134.125 16.9461 133.997 18.7159H123.263C123.374 19.7772 123.689 20.6301 124.206 21.2751C124.865 22.0963 125.827 22.5069 127.09 22.5069C127.905 22.5069 128.605 22.3287 129.191 21.9729C129.786 21.6079 130.244 21.0836 130.564 20.3992L133.833 21.3847C133.265 22.7162 132.386 23.7519 131.196 24.4912C130.015 25.2299 128.711 25.5995 127.282 25.5995ZM129.864 13.9947C130.33 14.6111 130.605 15.5295 130.688 16.7495H123.27C123.387 15.6519 123.699 14.7836 124.206 14.1452C124.865 13.3057 125.873 12.8859 127.227 12.8859C128.427 12.8859 129.306 13.2555 129.864 13.9947Z" fill="#1E293B"/>
<path d="M136.154 10.9215V25.1649H139.442V18.2608C139.442 15.7707 139.959 14.7918 141.364 14.0357C142.072 13.6082 144.427 13.6799 144.427 13.6799V10.9215H142.598C141.481 10.9215 139.825 11.7145 139.442 13.1557V10.9215H136.154Z" fill="#1E293B"/>
<path d="M146.018 25.1894V7.51402H149.305V17.8676L155.298 10.9215H159.431L157.125 13.6737L153.183 18.0555L159.431 25.1894H155.051L149.305 18.2608V25.1894H146.018Z" fill="#1E293B"/>
<path d="M164.293 10.9215H161.01V25.1894H164.293V10.9215Z" fill="#1E293B"/>
<path d="M161.01 6.46555V9.87306L164.297 9.07306V6.46555H161.01Z" fill="#1E293B"/>
<path d="M173.515 25.2069C174.482 25.2345 176.396 25.2069 176.396 25.2069V22.4546H173.946C172.754 22.4546 171.925 21.7338 171.925 20.6654V13.686H176.396V10.9338H171.925V7.5263L168.637 8.3263V10.9338H165.875V13.686H168.637V21.1328C168.637 23.6198 170.21 25.2069 173.515 25.2069Z" fill="#1E293B"/>
<path fill-rule="evenodd" clip-rule="evenodd" d="M6.88856 22.4L25.1114 22.4C26.9088 22.4 27.9773 20.3953 26.9737 18.9061L21.3696 10.5901C20.48 9.26995 18.5348 9.26995 17.6452 10.5901L16 13.0314L14.3548 10.5901C13.4652 9.26995 11.52 9.26995 10.6304 10.5901L5.02633 18.9061C4.02272 20.3953 5.09118 22.4 6.88856 22.4ZM12.094 21.12L25.1114 21.12C25.8827 21.12 26.3411 20.2598 25.9105 19.6208L20.3065 11.3049C19.9247 10.7384 19.0901 10.7384 18.7083 11.3049L12.094 21.12Z" fill="#1E293B"/>
<path fill-rule="evenodd" clip-rule="evenodd" d="M0 6.4C0 2.86538 2.86538 0 6.4 0H25.6C29.1346 0 32 2.86538 32 6.4V25.6C32 29.1346 29.1346 32 25.6 32H6.4C2.86538 32 0 29.1346 0 25.6V6.4ZM6.4 1.28H25.6C28.4277 1.28 30.72 3.5723 30.72 6.4V25.6C30.72 28.4277 28.4277 30.72 25.6 30.72H6.4C3.5723 30.72 1.28 28.4277 1.28 25.6V6.4C1.28 3.5723 3.5723 1.28 6.4 1.28Z" fill="#1E293B"/>
</svg>
